<svg width="512" height="288" viewBox="0 0 512 288" fill="none" xmlns="http://www.w3.org/2000/svg">
<path d="M0 0H512V288H0V0Z" fill="#E5E5E5"/>
<path d="M180.026 144H176.651L182.795 126.545H186.699L192.852 144H189.477L184.815 130.125H184.679L180.026 144ZM180.136 137.156H189.341V139.696H180.136V137.156ZM200.31 149.182C199.202 149.182 198.25 149.031 197.455 148.73C196.659 148.435 196.02 148.037 195.537 147.537C195.054 147.037 194.719 146.483 194.531 145.875L197.31 145.202C197.435 145.457 197.616 145.71 197.855 145.96C198.094 146.216 198.415 146.426 198.818 146.591C199.227 146.761 199.741 146.847 200.361 146.847C201.236 146.847 201.96 146.634 202.534 146.207C203.108 145.787 203.395 145.094 203.395 144.128V141.648H203.241C203.082 141.966 202.849 142.293 202.543 142.628C202.241 142.963 201.841 143.244 201.341 143.472C200.847 143.699 200.224 143.812 199.474 143.812C198.469 143.812 197.557 143.577 196.739 143.105C195.926 142.628 195.278 141.918 194.795 140.974C194.318 140.026 194.08 138.838 194.08 137.412C194.08 135.974 194.318 134.761 194.795 133.773C195.278 132.778 195.929 132.026 196.747 131.514C197.565 130.997 198.477 130.739 199.483 130.739C200.25 130.739 200.881 130.869 201.375 131.131C201.875 131.386 202.273 131.696 202.568 132.06C202.864 132.418 203.088 132.756 203.241 133.074H203.412V130.909H206.455V144.213C206.455 145.332 206.188 146.259 205.653 146.991C205.119 147.724 204.389 148.273 203.463 148.636C202.537 149 201.486 149.182 200.31 149.182ZM200.335 141.392C200.989 141.392 201.545 141.233 202.006 140.915C202.466 140.597 202.815 140.139 203.054 139.543C203.293 138.946 203.412 138.23 203.412 137.395C203.412 136.571 203.293 135.849 203.054 135.23C202.821 134.611 202.474 134.131 202.014 133.79C201.56 133.443 201 133.27 200.335 133.27C199.648 133.27 199.074 133.449 198.614 133.807C198.153 134.165 197.807 134.656 197.574 135.281C197.341 135.901 197.224 136.605 197.224 137.395C197.224 138.196 197.341 138.898 197.574 139.5C197.813 140.097 198.162 140.562 198.622 140.898C199.088 141.227 199.659 141.392 200.335 141.392ZM215.412 144.256C214.099 144.256 212.966 143.983 212.011 143.438C211.063 142.886 210.332 142.108 209.821 141.102C209.31 140.091 209.054 138.901 209.054 137.531C209.054 136.185 209.31 135.003 209.821 133.986C210.338 132.963 211.06 132.168 211.986 131.599C212.912 131.026 214 130.739 215.25 130.739C216.057 130.739 216.818 130.869 217.534 131.131C218.256 131.386 218.892 131.784 219.443 132.324C220 132.864 220.438 133.551 220.756 134.386C221.074 135.216 221.233 136.205 221.233 137.352V138.298H210.503V136.219H218.276C218.27 135.628 218.142 135.102 217.892 134.642C217.642 134.176 217.293 133.81 216.844 133.543C216.401 133.276 215.884 133.142 215.293 133.142C214.662 133.142 214.108 133.295 213.631 133.602C213.153 133.903 212.781 134.301 212.514 134.795C212.253 135.284 212.119 135.821 212.114 136.406V138.222C212.114 138.983 212.253 139.636 212.531 140.182C212.81 140.722 213.199 141.136 213.699 141.426C214.199 141.71 214.784 141.852 215.455 141.852C215.903 141.852 216.31 141.79 216.673 141.665C217.037 141.534 217.352 141.344 217.619 141.094C217.886 140.844 218.088 140.534 218.224 140.165L221.105 140.489C220.923 141.25 220.577 141.915 220.065 142.483C219.56 143.045 218.912 143.483 218.122 143.795C217.332 144.102 216.429 144.256 215.412 144.256ZM226.928 136.33V144H223.843V130.909H226.792V133.134H226.945C227.246 132.401 227.727 131.818 228.386 131.386C229.05 130.955 229.871 130.739 230.849 130.739C231.752 130.739 232.539 130.932 233.21 131.318C233.886 131.705 234.408 132.264 234.778 132.997C235.153 133.73 235.337 134.619 235.332 135.665V144H232.246V136.142C232.246 135.267 232.019 134.582 231.565 134.088C231.116 133.594 230.494 133.347 229.698 133.347C229.158 133.347 228.678 133.466 228.258 133.705C227.843 133.937 227.516 134.276 227.278 134.719C227.045 135.162 226.928 135.699 226.928 136.33ZM243.326 144.23C242.298 144.23 241.377 143.966 240.565 143.438C239.752 142.909 239.11 142.142 238.638 141.136C238.167 140.131 237.931 138.909 237.931 137.472C237.931 136.017 238.17 134.79 238.647 133.79C239.13 132.784 239.781 132.026 240.599 131.514C241.417 130.997 242.329 130.739 243.335 130.739C244.102 130.739 244.732 130.869 245.227 131.131C245.721 131.386 246.113 131.696 246.403 132.06C246.692 132.418 246.917 132.756 247.076 133.074H247.204V126.545H250.298V144H247.263V141.938H247.076C246.917 142.256 246.687 142.594 246.386 142.952C246.085 143.304 245.687 143.605 245.192 143.855C244.698 144.105 244.076 144.23 243.326 144.23ZM244.187 141.699C244.84 141.699 245.397 141.523 245.857 141.17C246.317 140.812 246.667 140.315 246.906 139.679C247.144 139.043 247.263 138.301 247.263 137.455C247.263 136.608 247.144 135.872 246.906 135.247C246.673 134.622 246.326 134.136 245.866 133.79C245.411 133.443 244.852 133.27 244.187 133.27C243.499 133.27 242.925 133.449 242.465 133.807C242.005 134.165 241.658 134.659 241.425 135.29C241.192 135.92 241.076 136.642 241.076 137.455C241.076 138.273 241.192 139.003 241.425 139.645C241.664 140.281 242.013 140.784 242.474 141.153C242.94 141.517 243.511 141.699 244.187 141.699ZM257.352 144.264C256.523 144.264 255.776 144.116 255.111 143.821C254.452 143.52 253.929 143.077 253.543 142.491C253.162 141.906 252.972 141.185 252.972 140.327C252.972 139.588 253.108 138.977 253.381 138.494C253.653 138.011 254.026 137.625 254.497 137.335C254.969 137.045 255.5 136.827 256.091 136.679C256.688 136.526 257.304 136.415 257.94 136.347C258.707 136.267 259.33 136.196 259.807 136.134C260.284 136.065 260.631 135.963 260.847 135.827C261.068 135.685 261.179 135.466 261.179 135.17V135.119C261.179 134.477 260.989 133.98 260.608 133.628C260.227 133.276 259.679 133.099 258.963 133.099C258.207 133.099 257.608 133.264 257.165 133.594C256.727 133.923 256.432 134.312 256.278 134.761L253.398 134.352C253.625 133.557 254 132.892 254.523 132.358C255.045 131.818 255.685 131.415 256.44 131.148C257.196 130.875 258.031 130.739 258.946 130.739C259.577 130.739 260.205 130.812 260.83 130.96C261.455 131.108 262.026 131.352 262.543 131.693C263.06 132.028 263.474 132.486 263.787 133.065C264.105 133.645 264.264 134.369 264.264 135.239V144H261.298V142.202H261.196C261.009 142.565 260.744 142.906 260.403 143.224C260.068 143.537 259.645 143.79 259.134 143.983C258.628 144.17 258.034 144.264 257.352 144.264ZM258.153 141.997C258.773 141.997 259.31 141.875 259.764 141.631C260.219 141.381 260.568 141.051 260.812 140.642C261.062 140.233 261.188 139.787 261.188 139.304V137.761C261.091 137.841 260.926 137.915 260.693 137.983C260.466 138.051 260.21 138.111 259.926 138.162C259.642 138.213 259.361 138.259 259.082 138.298C258.804 138.338 258.563 138.372 258.358 138.401C257.898 138.463 257.486 138.565 257.122 138.707C256.759 138.849 256.472 139.048 256.261 139.304C256.051 139.554 255.946 139.878 255.946 140.276C255.946 140.844 256.153 141.273 256.568 141.562C256.983 141.852 257.511 141.997 258.153 141.997ZM287.8 126.545V144H284.987L276.763 132.111H276.618V144H273.456V126.545H276.286L284.501 138.443H284.655V126.545H287.8ZM296.904 144.256C295.592 144.256 294.458 143.983 293.504 143.438C292.555 142.886 291.825 142.108 291.313 141.102C290.802 140.091 290.546 138.901 290.546 137.531C290.546 136.185 290.802 135.003 291.313 133.986C291.83 132.963 292.552 132.168 293.478 131.599C294.404 131.026 295.492 130.739 296.742 130.739C297.549 130.739 298.31 130.869 299.026 131.131C299.748 131.386 300.384 131.784 300.935 132.324C301.492 132.864 301.93 133.551 302.248 134.386C302.566 135.216 302.725 136.205 302.725 137.352V138.298H291.995V136.219H299.768C299.762 135.628 299.634 135.102 299.384 134.642C299.134 134.176 298.785 133.81 298.336 133.543C297.893 133.276 297.376 133.142 296.785 133.142C296.154 133.142 295.6 133.295 295.123 133.602C294.646 133.903 294.273 134.301 294.006 134.795C293.745 135.284 293.612 135.821 293.606 136.406V138.222C293.606 138.983 293.745 139.636 294.023 140.182C294.302 140.722 294.691 141.136 295.191 141.426C295.691 141.71 296.276 141.852 296.947 141.852C297.396 141.852 297.802 141.79 298.165 141.665C298.529 141.534 298.844 141.344 299.112 141.094C299.379 140.844 299.58 140.534 299.717 140.165L302.597 140.489C302.415 141.25 302.069 141.915 301.558 142.483C301.052 143.045 300.404 143.483 299.614 143.795C298.825 144.102 297.921 144.256 296.904 144.256ZM307.967 144L304.268 130.909H307.413L309.714 140.114H309.833L312.185 130.909H315.296L317.648 140.062H317.776L320.043 130.909H323.197L319.489 144H316.276L313.822 135.153H313.643L311.188 144H307.967ZM335.697 134.369L332.885 134.676C332.805 134.392 332.666 134.125 332.467 133.875C332.274 133.625 332.013 133.423 331.683 133.27C331.354 133.116 330.95 133.04 330.473 133.04C329.831 133.04 329.291 133.179 328.854 133.457C328.422 133.736 328.209 134.097 328.214 134.54C328.209 134.92 328.348 135.23 328.632 135.469C328.922 135.707 329.399 135.903 330.064 136.057L332.297 136.534C333.536 136.801 334.456 137.224 335.058 137.804C335.666 138.384 335.973 139.142 335.979 140.08C335.973 140.903 335.732 141.631 335.254 142.261C334.783 142.886 334.126 143.375 333.286 143.727C332.445 144.08 331.479 144.256 330.388 144.256C328.786 144.256 327.496 143.92 326.518 143.25C325.541 142.574 324.959 141.634 324.771 140.429L327.78 140.139C327.916 140.73 328.206 141.176 328.649 141.477C329.092 141.778 329.669 141.929 330.379 141.929C331.112 141.929 331.7 141.778 332.143 141.477C332.592 141.176 332.817 140.804 332.817 140.361C332.817 139.986 332.672 139.676 332.382 139.432C332.098 139.187 331.655 139 331.053 138.869L328.82 138.401C327.564 138.139 326.635 137.699 326.033 137.08C325.43 136.455 325.132 135.665 325.138 134.71C325.132 133.903 325.351 133.205 325.794 132.614C326.243 132.017 326.865 131.557 327.661 131.233C328.462 130.903 329.385 130.739 330.43 130.739C331.964 130.739 333.172 131.065 334.053 131.719C334.939 132.372 335.487 133.256 335.697 134.369ZM193.604 173V155.545H200.15C201.491 155.545 202.616 155.795 203.525 156.295C204.44 156.795 205.13 157.483 205.596 158.358C206.067 159.227 206.303 160.216 206.303 161.324C206.303 162.443 206.067 163.437 205.596 164.307C205.124 165.176 204.428 165.861 203.508 166.361C202.587 166.855 201.454 167.102 200.107 167.102H195.769V164.503H199.681C200.465 164.503 201.107 164.366 201.607 164.094C202.107 163.821 202.477 163.446 202.715 162.969C202.96 162.491 203.082 161.943 203.082 161.324C203.082 160.705 202.96 160.159 202.715 159.688C202.477 159.216 202.104 158.849 201.599 158.588C201.099 158.321 200.454 158.188 199.664 158.188H196.766V173H193.604ZM214.436 173.256C213.158 173.256 212.05 172.974 211.112 172.412C210.175 171.849 209.447 171.062 208.93 170.051C208.419 169.04 208.163 167.858 208.163 166.506C208.163 165.153 208.419 163.969 208.93 162.952C209.447 161.935 210.175 161.145 211.112 160.582C212.05 160.02 213.158 159.739 214.436 159.739C215.714 159.739 216.822 160.02 217.76 160.582C218.697 161.145 219.422 161.935 219.933 162.952C220.45 163.969 220.709 165.153 220.709 166.506C220.709 167.858 220.45 169.04 219.933 170.051C219.422 171.062 218.697 171.849 217.76 172.412C216.822 172.974 215.714 173.256 214.436 173.256ZM214.453 170.784C215.146 170.784 215.726 170.594 216.192 170.213C216.658 169.827 217.004 169.31 217.232 168.662C217.464 168.014 217.581 167.293 217.581 166.497C217.581 165.696 217.464 164.972 217.232 164.324C217.004 163.67 216.658 163.151 216.192 162.764C215.726 162.378 215.146 162.185 214.453 162.185C213.743 162.185 213.152 162.378 212.68 162.764C212.214 163.151 211.865 163.67 211.632 164.324C211.405 164.972 211.291 165.696 211.291 166.497C211.291 167.293 211.405 168.014 211.632 168.662C211.865 169.31 212.214 169.827 212.68 170.213C213.152 170.594 213.743 170.784 214.453 170.784ZM233.674 163.369L230.862 163.676C230.782 163.392 230.643 163.125 230.444 162.875C230.251 162.625 229.989 162.423 229.66 162.27C229.33 162.116 228.927 162.04 228.45 162.04C227.808 162.04 227.268 162.179 226.83 162.457C226.398 162.736 226.185 163.097 226.191 163.54C226.185 163.92 226.325 164.23 226.609 164.469C226.898 164.707 227.376 164.903 228.04 165.057L230.273 165.534C231.512 165.801 232.433 166.224 233.035 166.804C233.643 167.384 233.95 168.142 233.955 169.08C233.95 169.903 233.708 170.631 233.231 171.261C232.759 171.886 232.103 172.375 231.262 172.727C230.421 173.08 229.455 173.256 228.364 173.256C226.762 173.256 225.472 172.92 224.495 172.25C223.518 171.574 222.935 170.634 222.748 169.429L225.756 169.139C225.893 169.73 226.183 170.176 226.626 170.477C227.069 170.778 227.646 170.929 228.356 170.929C229.089 170.929 229.677 170.778 230.12 170.477C230.569 170.176 230.793 169.804 230.793 169.361C230.793 168.986 230.648 168.676 230.359 168.432C230.075 168.187 229.631 168 229.029 167.869L226.796 167.401C225.54 167.139 224.612 166.699 224.009 166.08C223.407 165.455 223.109 164.665 223.114 163.71C223.109 162.903 223.327 162.205 223.771 161.614C224.219 161.017 224.842 160.557 225.637 160.233C226.438 159.903 227.362 159.739 228.407 159.739C229.941 159.739 231.148 160.065 232.029 160.719C232.915 161.372 233.464 162.256 233.674 163.369ZM243.036 159.909V162.295H235.511V159.909H243.036ZM237.369 156.773H240.454V169.062C240.454 169.477 240.516 169.795 240.641 170.017C240.772 170.233 240.942 170.381 241.153 170.46C241.363 170.54 241.596 170.58 241.852 170.58C242.045 170.58 242.221 170.565 242.38 170.537C242.545 170.509 242.67 170.483 242.755 170.46L243.275 172.872C243.11 172.929 242.874 172.991 242.567 173.06C242.266 173.128 241.897 173.168 241.46 173.179C240.687 173.202 239.991 173.085 239.371 172.83C238.752 172.568 238.261 172.165 237.897 171.619C237.539 171.074 237.363 170.392 237.369 169.574V156.773ZM254.868 155.545V173H251.706V155.545H254.868ZM258.156 173V159.909H261.104V162.134H261.258C261.531 161.384 261.982 160.798 262.613 160.378C263.244 159.952 263.996 159.739 264.871 159.739C265.758 159.739 266.505 159.955 267.113 160.386C267.727 160.812 268.158 161.395 268.408 162.134H268.545C268.835 161.406 269.323 160.827 270.011 160.395C270.704 159.957 271.525 159.739 272.474 159.739C273.678 159.739 274.661 160.119 275.423 160.881C276.184 161.642 276.565 162.753 276.565 164.213V173H273.471V164.69C273.471 163.878 273.255 163.284 272.823 162.909C272.391 162.528 271.863 162.338 271.238 162.338C270.494 162.338 269.911 162.571 269.491 163.037C269.076 163.497 268.869 164.097 268.869 164.835V173H265.843V164.562C265.843 163.886 265.638 163.347 265.229 162.943C264.826 162.54 264.298 162.338 263.644 162.338C263.201 162.338 262.798 162.452 262.434 162.679C262.07 162.901 261.781 163.216 261.565 163.625C261.349 164.028 261.241 164.5 261.241 165.04V173H258.156ZM283.462 173.264C282.632 173.264 281.885 173.116 281.22 172.821C280.561 172.52 280.038 172.077 279.652 171.491C279.271 170.906 279.081 170.185 279.081 169.327C279.081 168.588 279.217 167.977 279.49 167.494C279.763 167.011 280.135 166.625 280.607 166.335C281.078 166.045 281.609 165.827 282.2 165.679C282.797 165.526 283.413 165.415 284.05 165.347C284.817 165.267 285.439 165.196 285.916 165.134C286.393 165.065 286.74 164.963 286.956 164.827C287.178 164.685 287.288 164.466 287.288 164.17V164.119C287.288 163.477 287.098 162.98 286.717 162.628C286.337 162.276 285.788 162.099 285.072 162.099C284.317 162.099 283.717 162.264 283.274 162.594C282.837 162.923 282.541 163.312 282.388 163.761L279.507 163.352C279.734 162.557 280.109 161.892 280.632 161.358C281.155 160.818 281.794 160.415 282.55 160.148C283.305 159.875 284.141 159.739 285.055 159.739C285.686 159.739 286.314 159.812 286.939 159.96C287.564 160.108 288.135 160.352 288.652 160.693C289.169 161.028 289.584 161.486 289.896 162.065C290.214 162.645 290.374 163.369 290.374 164.239V173H287.408V171.202H287.305C287.118 171.565 286.854 171.906 286.513 172.224C286.178 172.537 285.754 172.79 285.243 172.983C284.737 173.17 284.143 173.264 283.462 173.264ZM284.263 170.997C284.882 170.997 285.419 170.875 285.874 170.631C286.328 170.381 286.678 170.051 286.922 169.642C287.172 169.233 287.297 168.787 287.297 168.304V166.761C287.2 166.841 287.036 166.915 286.803 166.983C286.575 167.051 286.32 167.111 286.036 167.162C285.751 167.213 285.47 167.259 285.192 167.298C284.913 167.338 284.672 167.372 284.467 167.401C284.007 167.463 283.595 167.565 283.232 167.707C282.868 167.849 282.581 168.048 282.371 168.304C282.161 168.554 282.055 168.878 282.055 169.276C282.055 169.844 282.263 170.273 282.678 170.562C283.092 170.852 283.621 170.997 284.263 170.997ZM299.169 178.182C298.061 178.182 297.109 178.031 296.314 177.73C295.518 177.435 294.879 177.037 294.396 176.537C293.913 176.037 293.578 175.483 293.391 174.875L296.169 174.202C296.294 174.457 296.476 174.71 296.714 174.96C296.953 175.216 297.274 175.426 297.678 175.591C298.087 175.761 298.601 175.847 299.22 175.847C300.095 175.847 300.82 175.634 301.393 175.207C301.967 174.787 302.254 174.094 302.254 173.128V170.648H302.101C301.942 170.966 301.709 171.293 301.402 171.628C301.101 171.963 300.7 172.244 300.2 172.472C299.706 172.699 299.084 172.812 298.334 172.812C297.328 172.812 296.416 172.577 295.598 172.105C294.786 171.628 294.138 170.918 293.655 169.974C293.178 169.026 292.939 167.838 292.939 166.412C292.939 164.974 293.178 163.761 293.655 162.773C294.138 161.778 294.788 161.026 295.607 160.514C296.425 159.997 297.337 159.739 298.342 159.739C299.109 159.739 299.74 159.869 300.234 160.131C300.734 160.386 301.132 160.696 301.428 161.06C301.723 161.418 301.947 161.756 302.101 162.074H302.271V159.909H305.314V173.213C305.314 174.332 305.047 175.259 304.513 175.991C303.979 176.724 303.249 177.273 302.322 177.636C301.396 178 300.345 178.182 299.169 178.182ZM299.195 170.392C299.848 170.392 300.405 170.233 300.865 169.915C301.325 169.597 301.675 169.139 301.913 168.543C302.152 167.946 302.271 167.23 302.271 166.395C302.271 165.571 302.152 164.849 301.913 164.23C301.68 163.611 301.334 163.131 300.874 162.79C300.419 162.443 299.859 162.27 299.195 162.27C298.507 162.27 297.933 162.449 297.473 162.807C297.013 163.165 296.666 163.656 296.433 164.281C296.2 164.901 296.084 165.605 296.084 166.395C296.084 167.196 296.2 167.898 296.433 168.5C296.672 169.097 297.021 169.562 297.482 169.898C297.947 170.227 298.518 170.392 299.195 170.392ZM314.271 173.256C312.959 173.256 311.825 172.983 310.871 172.438C309.922 171.886 309.192 171.108 308.68 170.102C308.169 169.091 307.913 167.901 307.913 166.531C307.913 165.185 308.169 164.003 308.68 162.986C309.197 161.963 309.919 161.168 310.845 160.599C311.771 160.026 312.859 159.739 314.109 159.739C314.916 159.739 315.678 159.869 316.393 160.131C317.115 160.386 317.751 160.784 318.303 161.324C318.859 161.864 319.297 162.551 319.615 163.386C319.933 164.216 320.092 165.205 320.092 166.352V167.298H309.362V165.219H317.135C317.129 164.628 317.001 164.102 316.751 163.642C316.501 163.176 316.152 162.81 315.703 162.543C315.26 162.276 314.743 162.142 314.152 162.142C313.521 162.142 312.967 162.295 312.49 162.602C312.013 162.903 311.641 163.301 311.374 163.795C311.112 164.284 310.979 164.821 310.973 165.406V167.222C310.973 167.983 311.112 168.636 311.391 169.182C311.669 169.722 312.058 170.136 312.558 170.426C313.058 170.71 313.643 170.852 314.314 170.852C314.763 170.852 315.169 170.79 315.533 170.665C315.896 170.534 316.212 170.344 316.479 170.094C316.746 169.844 316.947 169.534 317.084 169.165L319.964 169.489C319.783 170.25 319.436 170.915 318.925 171.483C318.419 172.045 317.771 172.483 316.982 172.795C316.192 173.102 315.288 173.256 314.271 173.256Z" fill="#C4C1C1"/>
</svg>
