<svg width="512" height="288" viewBox="0 0 512 288" fill="none" xmlns="http://www.w3.org/2000/svg">
<path d="M0 0H512V288H0V0Z" fill="#E5E5E5"/>
<path d="M176.315 144H172.94L179.085 126.545H182.988L189.141 144H185.766L181.104 130.125H180.968L176.315 144ZM176.425 137.156H185.63V139.696H176.425V137.156ZM196.599 149.182C195.491 149.182 194.539 149.031 193.744 148.73C192.948 148.435 192.309 148.037 191.826 147.537C191.343 147.037 191.008 146.483 190.82 145.875L193.599 145.202C193.724 145.457 193.906 145.71 194.144 145.96C194.383 146.216 194.704 146.426 195.107 146.591C195.516 146.761 196.031 146.847 196.65 146.847C197.525 146.847 198.249 146.634 198.823 146.207C199.397 145.787 199.684 145.094 199.684 144.128V141.648H199.531C199.371 141.966 199.138 142.293 198.832 142.628C198.531 142.963 198.13 143.244 197.63 143.472C197.136 143.699 196.513 143.812 195.763 143.812C194.758 143.812 193.846 143.577 193.028 143.105C192.215 142.628 191.567 141.918 191.085 140.974C190.607 140.026 190.369 138.838 190.369 137.412C190.369 135.974 190.607 134.761 191.085 133.773C191.567 132.778 192.218 132.026 193.036 131.514C193.854 130.997 194.766 130.739 195.772 130.739C196.539 130.739 197.17 130.869 197.664 131.131C198.164 131.386 198.562 131.696 198.857 132.06C199.153 132.418 199.377 132.756 199.531 133.074H199.701V130.909H202.744V144.213C202.744 145.332 202.477 146.259 201.942 146.991C201.408 147.724 200.678 148.273 199.752 148.636C198.826 149 197.775 149.182 196.599 149.182ZM196.624 141.392C197.278 141.392 197.835 141.233 198.295 140.915C198.755 140.597 199.104 140.139 199.343 139.543C199.582 138.946 199.701 138.23 199.701 137.395C199.701 136.571 199.582 135.849 199.343 135.23C199.11 134.611 198.763 134.131 198.303 133.79C197.849 133.443 197.289 133.27 196.624 133.27C195.937 133.27 195.363 133.449 194.903 133.807C194.442 134.165 194.096 134.656 193.863 135.281C193.63 135.901 193.513 136.605 193.513 137.395C193.513 138.196 193.63 138.898 193.863 139.5C194.102 140.097 194.451 140.562 194.911 140.898C195.377 141.227 195.948 141.392 196.624 141.392ZM211.701 144.256C210.388 144.256 209.255 143.983 208.3 143.438C207.352 142.886 206.621 142.108 206.11 141.102C205.599 140.091 205.343 138.901 205.343 137.531C205.343 136.185 205.599 135.003 206.11 133.986C206.627 132.963 207.349 132.168 208.275 131.599C209.201 131.026 210.289 130.739 211.539 130.739C212.346 130.739 213.107 130.869 213.823 131.131C214.545 131.386 215.181 131.784 215.732 132.324C216.289 132.864 216.727 133.551 217.045 134.386C217.363 135.216 217.522 136.205 217.522 137.352V138.298H206.792V136.219H214.565C214.559 135.628 214.431 135.102 214.181 134.642C213.931 134.176 213.582 133.81 213.133 133.543C212.69 133.276 212.173 133.142 211.582 133.142C210.951 133.142 210.397 133.295 209.92 133.602C209.442 133.903 209.07 134.301 208.803 134.795C208.542 135.284 208.408 135.821 208.403 136.406V138.222C208.403 138.983 208.542 139.636 208.82 140.182C209.099 140.722 209.488 141.136 209.988 141.426C210.488 141.71 211.073 141.852 211.744 141.852C212.192 141.852 212.599 141.79 212.962 141.665C213.326 141.534 213.641 141.344 213.908 141.094C214.175 140.844 214.377 140.534 214.513 140.165L217.394 140.489C217.212 141.25 216.866 141.915 216.354 142.483C215.849 143.045 215.201 143.483 214.411 143.795C213.621 144.102 212.718 144.256 211.701 144.256ZM223.217 136.33V144H220.132V130.909H223.081V133.134H223.234C223.536 132.401 224.016 131.818 224.675 131.386C225.339 130.955 226.161 130.739 227.138 130.739C228.041 130.739 228.828 130.932 229.499 131.318C230.175 131.705 230.697 132.264 231.067 132.997C231.442 133.73 231.626 134.619 231.621 135.665V144H228.536V136.142C228.536 135.267 228.308 134.582 227.854 134.088C227.405 133.594 226.783 133.347 225.987 133.347C225.447 133.347 224.967 133.466 224.547 133.705C224.132 133.937 223.805 134.276 223.567 134.719C223.334 135.162 223.217 135.699 223.217 136.33ZM239.615 144.23C238.587 144.23 237.666 143.966 236.854 143.438C236.041 142.909 235.399 142.142 234.928 141.136C234.456 140.131 234.22 138.909 234.22 137.472C234.22 136.017 234.459 134.79 234.936 133.79C235.419 132.784 236.07 132.026 236.888 131.514C237.706 130.997 238.618 130.739 239.624 130.739C240.391 130.739 241.021 130.869 241.516 131.131C242.01 131.386 242.402 131.696 242.692 132.06C242.982 132.418 243.206 132.756 243.365 133.074H243.493V126.545H246.587V144H243.553V141.938H243.365C243.206 142.256 242.976 142.594 242.675 142.952C242.374 143.304 241.976 143.605 241.482 143.855C240.987 144.105 240.365 144.23 239.615 144.23ZM240.476 141.699C241.129 141.699 241.686 141.523 242.146 141.17C242.607 140.812 242.956 140.315 243.195 139.679C243.433 139.043 243.553 138.301 243.553 137.455C243.553 136.608 243.433 135.872 243.195 135.247C242.962 134.622 242.615 134.136 242.155 133.79C241.7 133.443 241.141 133.27 240.476 133.27C239.788 133.27 239.214 133.449 238.754 133.807C238.294 134.165 237.947 134.659 237.714 135.29C237.482 135.92 237.365 136.642 237.365 137.455C237.365 138.273 237.482 139.003 237.714 139.645C237.953 140.281 238.303 140.784 238.763 141.153C239.229 141.517 239.8 141.699 240.476 141.699ZM253.641 144.264C252.812 144.264 252.065 144.116 251.4 143.821C250.741 143.52 250.218 143.077 249.832 142.491C249.451 141.906 249.261 141.185 249.261 140.327C249.261 139.588 249.397 138.977 249.67 138.494C249.942 138.011 250.315 137.625 250.786 137.335C251.258 137.045 251.789 136.827 252.38 136.679C252.977 136.526 253.593 136.415 254.229 136.347C254.996 136.267 255.619 136.196 256.096 136.134C256.573 136.065 256.92 135.963 257.136 135.827C257.357 135.685 257.468 135.466 257.468 135.17V135.119C257.468 134.477 257.278 133.98 256.897 133.628C256.516 133.276 255.968 133.099 255.252 133.099C254.496 133.099 253.897 133.264 253.454 133.594C253.016 133.923 252.721 134.312 252.567 134.761L249.687 134.352C249.914 133.557 250.289 132.892 250.812 132.358C251.335 131.818 251.974 131.415 252.729 131.148C253.485 130.875 254.32 130.739 255.235 130.739C255.866 130.739 256.494 130.812 257.119 130.96C257.744 131.108 258.315 131.352 258.832 131.693C259.349 132.028 259.763 132.486 260.076 133.065C260.394 133.645 260.553 134.369 260.553 135.239V144H257.587V142.202H257.485C257.298 142.565 257.033 142.906 256.692 143.224C256.357 143.537 255.934 143.79 255.423 143.983C254.917 144.17 254.323 144.264 253.641 144.264ZM254.442 141.997C255.062 141.997 255.599 141.875 256.053 141.631C256.508 141.381 256.857 141.051 257.102 140.642C257.352 140.233 257.477 139.787 257.477 139.304V137.761C257.38 137.841 257.215 137.915 256.982 137.983C256.755 138.051 256.499 138.111 256.215 138.162C255.931 138.213 255.65 138.259 255.371 138.298C255.093 138.338 254.852 138.372 254.647 138.401C254.187 138.463 253.775 138.565 253.411 138.707C253.048 138.849 252.761 139.048 252.55 139.304C252.34 139.554 252.235 139.878 252.235 140.276C252.235 140.844 252.442 141.273 252.857 141.562C253.272 141.852 253.8 141.997 254.442 141.997ZM268.978 129.196V126.545H282.904V129.196H277.509V144H274.373V129.196H268.978ZM286.654 144L282.955 130.909H286.1L288.401 140.114H288.521L290.873 130.909H293.984L296.336 140.062H296.464L298.731 130.909H301.884L298.177 144H294.964L292.509 135.153H292.33L289.876 144H286.654ZM309.459 144.256C308.146 144.256 307.013 143.983 306.058 143.438C305.109 142.886 304.379 142.108 303.868 141.102C303.357 140.091 303.101 138.901 303.101 137.531C303.101 136.185 303.357 135.003 303.868 133.986C304.385 132.963 305.107 132.168 306.033 131.599C306.959 131.026 308.047 130.739 309.297 130.739C310.104 130.739 310.865 130.869 311.581 131.131C312.303 131.386 312.939 131.784 313.49 132.324C314.047 132.864 314.484 133.551 314.803 134.386C315.121 135.216 315.28 136.205 315.28 137.352V138.298H304.55V136.219H312.322C312.317 135.628 312.189 135.102 311.939 134.642C311.689 134.176 311.339 133.81 310.891 133.543C310.447 133.276 309.93 133.142 309.339 133.142C308.709 133.142 308.155 133.295 307.678 133.602C307.2 133.903 306.828 134.301 306.561 134.795C306.3 135.284 306.166 135.821 306.161 136.406V138.222C306.161 138.983 306.3 139.636 306.578 140.182C306.857 140.722 307.246 141.136 307.746 141.426C308.246 141.71 308.831 141.852 309.501 141.852C309.95 141.852 310.357 141.79 310.72 141.665C311.084 141.534 311.399 141.344 311.666 141.094C311.933 140.844 312.135 140.534 312.271 140.165L315.152 140.489C314.97 141.25 314.624 141.915 314.112 142.483C313.607 143.045 312.959 143.483 312.169 143.795C311.379 144.102 310.476 144.256 309.459 144.256ZM323.685 144.256C322.373 144.256 321.239 143.983 320.285 143.438C319.336 142.886 318.606 142.108 318.094 141.102C317.583 140.091 317.327 138.901 317.327 137.531C317.327 136.185 317.583 135.003 318.094 133.986C318.612 132.963 319.333 132.168 320.259 131.599C321.185 131.026 322.273 130.739 323.523 130.739C324.33 130.739 325.092 130.869 325.808 131.131C326.529 131.386 327.165 131.784 327.717 132.324C328.273 132.864 328.711 133.551 329.029 134.386C329.347 135.216 329.506 136.205 329.506 137.352V138.298H318.776V136.219H326.549C326.543 135.628 326.415 135.102 326.165 134.642C325.915 134.176 325.566 133.81 325.117 133.543C324.674 133.276 324.157 133.142 323.566 133.142C322.935 133.142 322.381 133.295 321.904 133.602C321.427 133.903 321.055 134.301 320.788 134.795C320.526 135.284 320.393 135.821 320.387 136.406V138.222C320.387 138.983 320.526 139.636 320.805 140.182C321.083 140.722 321.472 141.136 321.972 141.426C322.472 141.71 323.058 141.852 323.728 141.852C324.177 141.852 324.583 141.79 324.947 141.665C325.31 141.534 325.626 141.344 325.893 141.094C326.16 140.844 326.362 140.534 326.498 140.165L329.379 140.489C329.197 141.25 328.85 141.915 328.339 142.483C327.833 143.045 327.185 143.483 326.396 143.795C325.606 144.102 324.702 144.256 323.685 144.256ZM338.653 130.909V133.295H331.128V130.909H338.653ZM332.986 127.773H336.071V140.062C336.071 140.477 336.134 140.795 336.259 141.017C336.389 141.233 336.56 141.381 336.77 141.46C336.98 141.54 337.213 141.58 337.469 141.58C337.662 141.58 337.838 141.565 337.997 141.537C338.162 141.509 338.287 141.483 338.372 141.46L338.892 143.872C338.727 143.929 338.491 143.991 338.185 144.06C337.884 144.128 337.514 144.168 337.077 144.179C336.304 144.202 335.608 144.085 334.989 143.83C334.369 143.568 333.878 143.165 333.514 142.619C333.156 142.074 332.98 141.392 332.986 140.574V127.773ZM193.104 173V155.545H199.65C200.991 155.545 202.116 155.795 203.025 156.295C203.94 156.795 204.63 157.483 205.096 158.358C205.567 159.227 205.803 160.216 205.803 161.324C205.803 162.443 205.567 163.437 205.096 164.307C204.624 165.176 203.928 165.861 203.008 166.361C202.087 166.855 200.954 167.102 199.607 167.102H195.269V164.503H199.181C199.965 164.503 200.607 164.366 201.107 164.094C201.607 163.821 201.977 163.446 202.215 162.969C202.46 162.491 202.582 161.943 202.582 161.324C202.582 160.705 202.46 160.159 202.215 159.688C201.977 159.216 201.604 158.849 201.099 158.588C200.599 158.321 199.954 158.188 199.164 158.188H196.266V173H193.104ZM213.936 173.256C212.658 173.256 211.55 172.974 210.612 172.412C209.675 171.849 208.947 171.062 208.43 170.051C207.919 169.04 207.663 167.858 207.663 166.506C207.663 165.153 207.919 163.969 208.43 162.952C208.947 161.935 209.675 161.145 210.612 160.582C211.55 160.02 212.658 159.739 213.936 159.739C215.214 159.739 216.322 160.02 217.26 160.582C218.197 161.145 218.922 161.935 219.433 162.952C219.95 163.969 220.209 165.153 220.209 166.506C220.209 167.858 219.95 169.04 219.433 170.051C218.922 171.062 218.197 171.849 217.26 172.412C216.322 172.974 215.214 173.256 213.936 173.256ZM213.953 170.784C214.646 170.784 215.226 170.594 215.692 170.213C216.158 169.827 216.504 169.31 216.732 168.662C216.964 168.014 217.081 167.293 217.081 166.497C217.081 165.696 216.964 164.972 216.732 164.324C216.504 163.67 216.158 163.151 215.692 162.764C215.226 162.378 214.646 162.185 213.953 162.185C213.243 162.185 212.652 162.378 212.18 162.764C211.714 163.151 211.365 163.67 211.132 164.324C210.905 164.972 210.791 165.696 210.791 166.497C210.791 167.293 210.905 168.014 211.132 168.662C211.365 169.31 211.714 169.827 212.18 170.213C212.652 170.594 213.243 170.784 213.953 170.784ZM233.174 163.369L230.362 163.676C230.282 163.392 230.143 163.125 229.944 162.875C229.751 162.625 229.489 162.423 229.16 162.27C228.83 162.116 228.427 162.04 227.95 162.04C227.308 162.04 226.768 162.179 226.33 162.457C225.898 162.736 225.685 163.097 225.691 163.54C225.685 163.92 225.825 164.23 226.109 164.469C226.398 164.707 226.876 164.903 227.54 165.057L229.773 165.534C231.012 165.801 231.933 166.224 232.535 166.804C233.143 167.384 233.45 168.142 233.455 169.08C233.45 169.903 233.208 170.631 232.731 171.261C232.259 171.886 231.603 172.375 230.762 172.727C229.921 173.08 228.955 173.256 227.864 173.256C226.262 173.256 224.972 172.92 223.995 172.25C223.018 171.574 222.435 170.634 222.248 169.429L225.256 169.139C225.393 169.73 225.683 170.176 226.126 170.477C226.569 170.778 227.146 170.929 227.856 170.929C228.589 170.929 229.177 170.778 229.62 170.477C230.069 170.176 230.293 169.804 230.293 169.361C230.293 168.986 230.148 168.676 229.859 168.432C229.575 168.187 229.131 168 228.529 167.869L226.296 167.401C225.04 167.139 224.112 166.699 223.509 166.08C222.907 165.455 222.609 164.665 222.614 163.71C222.609 162.903 222.827 162.205 223.271 161.614C223.719 161.017 224.342 160.557 225.137 160.233C225.938 159.903 226.862 159.739 227.907 159.739C229.441 159.739 230.648 160.065 231.529 160.719C232.415 161.372 232.964 162.256 233.174 163.369ZM242.536 159.909V162.295H235.011V159.909H242.536ZM236.869 156.773H239.954V169.062C239.954 169.477 240.016 169.795 240.141 170.017C240.272 170.233 240.442 170.381 240.653 170.46C240.863 170.54 241.096 170.58 241.352 170.58C241.545 170.58 241.721 170.565 241.88 170.537C242.045 170.509 242.17 170.483 242.255 170.46L242.775 172.872C242.61 172.929 242.374 172.991 242.067 173.06C241.766 173.128 241.397 173.168 240.96 173.179C240.187 173.202 239.491 173.085 238.871 172.83C238.252 172.568 237.761 172.165 237.397 171.619C237.039 171.074 236.863 170.392 236.869 169.574V156.773ZM254.368 155.545V173H251.206V155.545H254.368ZM257.656 173V159.909H260.604V162.134H260.758C261.031 161.384 261.482 160.798 262.113 160.378C262.744 159.952 263.496 159.739 264.371 159.739C265.258 159.739 266.005 159.955 266.613 160.386C267.227 160.812 267.658 161.395 267.908 162.134H268.045C268.335 161.406 268.823 160.827 269.511 160.395C270.204 159.957 271.025 159.739 271.974 159.739C273.178 159.739 274.161 160.119 274.923 160.881C275.684 161.642 276.065 162.753 276.065 164.213V173H272.971V164.69C272.971 163.878 272.755 163.284 272.323 162.909C271.891 162.528 271.363 162.338 270.738 162.338C269.994 162.338 269.411 162.571 268.991 163.037C268.576 163.497 268.369 164.097 268.369 164.835V173H265.343V164.562C265.343 163.886 265.138 163.347 264.729 162.943C264.326 162.54 263.798 162.338 263.144 162.338C262.701 162.338 262.298 162.452 261.934 162.679C261.57 162.901 261.281 163.216 261.065 163.625C260.849 164.028 260.741 164.5 260.741 165.04V173H257.656ZM282.962 173.264C282.132 173.264 281.385 173.116 280.72 172.821C280.061 172.52 279.538 172.077 279.152 171.491C278.771 170.906 278.581 170.185 278.581 169.327C278.581 168.588 278.717 167.977 278.99 167.494C279.263 167.011 279.635 166.625 280.107 166.335C280.578 166.045 281.109 165.827 281.7 165.679C282.297 165.526 282.913 165.415 283.55 165.347C284.317 165.267 284.939 165.196 285.416 165.134C285.893 165.065 286.24 164.963 286.456 164.827C286.678 164.685 286.788 164.466 286.788 164.17V164.119C286.788 163.477 286.598 162.98 286.217 162.628C285.837 162.276 285.288 162.099 284.572 162.099C283.817 162.099 283.217 162.264 282.774 162.594C282.337 162.923 282.041 163.312 281.888 163.761L279.007 163.352C279.234 162.557 279.609 161.892 280.132 161.358C280.655 160.818 281.294 160.415 282.05 160.148C282.805 159.875 283.641 159.739 284.555 159.739C285.186 159.739 285.814 159.812 286.439 159.96C287.064 160.108 287.635 160.352 288.152 160.693C288.669 161.028 289.084 161.486 289.396 162.065C289.714 162.645 289.874 163.369 289.874 164.239V173H286.908V171.202H286.805C286.618 171.565 286.354 171.906 286.013 172.224C285.678 172.537 285.254 172.79 284.743 172.983C284.237 173.17 283.643 173.264 282.962 173.264ZM283.763 170.997C284.382 170.997 284.919 170.875 285.374 170.631C285.828 170.381 286.178 170.051 286.422 169.642C286.672 169.233 286.797 168.787 286.797 168.304V166.761C286.7 166.841 286.536 166.915 286.303 166.983C286.075 167.051 285.82 167.111 285.536 167.162C285.251 167.213 284.97 167.259 284.692 167.298C284.413 167.338 284.172 167.372 283.967 167.401C283.507 167.463 283.095 167.565 282.732 167.707C282.368 167.849 282.081 168.048 281.871 168.304C281.661 168.554 281.555 168.878 281.555 169.276C281.555 169.844 281.763 170.273 282.178 170.562C282.592 170.852 283.121 170.997 283.763 170.997ZM298.669 178.182C297.561 178.182 296.609 178.031 295.814 177.73C295.018 177.435 294.379 177.037 293.896 176.537C293.413 176.037 293.078 175.483 292.891 174.875L295.669 174.202C295.794 174.457 295.976 174.71 296.214 174.96C296.453 175.216 296.774 175.426 297.178 175.591C297.587 175.761 298.101 175.847 298.72 175.847C299.595 175.847 300.32 175.634 300.893 175.207C301.467 174.787 301.754 174.094 301.754 173.128V170.648H301.601C301.442 170.966 301.209 171.293 300.902 171.628C300.601 171.963 300.2 172.244 299.7 172.472C299.206 172.699 298.584 172.812 297.834 172.812C296.828 172.812 295.916 172.577 295.098 172.105C294.286 171.628 293.638 170.918 293.155 169.974C292.678 169.026 292.439 167.838 292.439 166.412C292.439 164.974 292.678 163.761 293.155 162.773C293.638 161.778 294.288 161.026 295.107 160.514C295.925 159.997 296.837 159.739 297.842 159.739C298.609 159.739 299.24 159.869 299.734 160.131C300.234 160.386 300.632 160.696 300.928 161.06C301.223 161.418 301.447 161.756 301.601 162.074H301.771V159.909H304.814V173.213C304.814 174.332 304.547 175.259 304.013 175.991C303.479 176.724 302.749 177.273 301.822 177.636C300.896 178 299.845 178.182 298.669 178.182ZM298.695 170.392C299.348 170.392 299.905 170.233 300.365 169.915C300.825 169.597 301.175 169.139 301.413 168.543C301.652 167.946 301.771 167.23 301.771 166.395C301.771 165.571 301.652 164.849 301.413 164.23C301.18 163.611 300.834 163.131 300.374 162.79C299.919 162.443 299.359 162.27 298.695 162.27C298.007 162.27 297.433 162.449 296.973 162.807C296.513 163.165 296.166 163.656 295.933 164.281C295.7 164.901 295.584 165.605 295.584 166.395C295.584 167.196 295.7 167.898 295.933 168.5C296.172 169.097 296.521 169.562 296.982 169.898C297.447 170.227 298.018 170.392 298.695 170.392ZM313.771 173.256C312.459 173.256 311.325 172.983 310.371 172.438C309.422 171.886 308.692 171.108 308.18 170.102C307.669 169.091 307.413 167.901 307.413 166.531C307.413 165.185 307.669 164.003 308.18 162.986C308.697 161.963 309.419 161.168 310.345 160.599C311.271 160.026 312.359 159.739 313.609 159.739C314.416 159.739 315.178 159.869 315.893 160.131C316.615 160.386 317.251 160.784 317.803 161.324C318.359 161.864 318.797 162.551 319.115 163.386C319.433 164.216 319.592 165.205 319.592 166.352V167.298H308.862V165.219H316.635C316.629 164.628 316.501 164.102 316.251 163.642C316.001 163.176 315.652 162.81 315.203 162.543C314.76 162.276 314.243 162.142 313.652 162.142C313.021 162.142 312.467 162.295 311.99 162.602C311.513 162.903 311.141 163.301 310.874 163.795C310.612 164.284 310.479 164.821 310.473 165.406V167.222C310.473 167.983 310.612 168.636 310.891 169.182C311.169 169.722 311.558 170.136 312.058 170.426C312.558 170.71 313.143 170.852 313.814 170.852C314.263 170.852 314.669 170.79 315.033 170.665C315.396 170.534 315.712 170.344 315.979 170.094C316.246 169.844 316.447 169.534 316.584 169.165L319.464 169.489C319.283 170.25 318.936 170.915 318.425 171.483C317.919 172.045 317.271 172.483 316.482 172.795C315.692 173.102 314.788 173.256 313.771 173.256Z" fill="#C4C1C1"/>
</svg>
