<svg width="512" height="288" viewBox="0 0 512 288" fill="none" xmlns="http://www.w3.org/2000/svg">
<path d="M0 0H512V288H0V0Z" fill="#E5E5E5"/>
<path d="M164.264 144H160.889L167.034 126.545H170.937L177.091 144H173.716L169.054 130.125H168.917L164.264 144ZM164.375 137.156H173.579V139.696H164.375V137.156ZM184.548 149.182C183.44 149.182 182.488 149.031 181.693 148.73C180.897 148.435 180.258 148.037 179.775 147.537C179.292 147.037 178.957 146.483 178.77 145.875L181.548 145.202C181.673 145.457 181.855 145.71 182.093 145.96C182.332 146.216 182.653 146.426 183.056 146.591C183.466 146.761 183.98 146.847 184.599 146.847C185.474 146.847 186.199 146.634 186.772 146.207C187.346 145.787 187.633 145.094 187.633 144.128V141.648H187.48C187.321 141.966 187.088 142.293 186.781 142.628C186.48 142.963 186.079 143.244 185.579 143.472C185.085 143.699 184.463 143.812 183.713 143.812C182.707 143.812 181.795 143.577 180.977 143.105C180.164 142.628 179.517 141.918 179.034 140.974C178.556 140.026 178.318 138.838 178.318 137.412C178.318 135.974 178.556 134.761 179.034 133.773C179.517 132.778 180.167 132.026 180.985 131.514C181.804 130.997 182.716 130.739 183.721 130.739C184.488 130.739 185.119 130.869 185.613 131.131C186.113 131.386 186.511 131.696 186.806 132.06C187.102 132.418 187.326 132.756 187.48 133.074H187.65V130.909H190.693V144.213C190.693 145.332 190.426 146.259 189.892 146.991C189.358 147.724 188.627 148.273 187.701 148.636C186.775 149 185.724 149.182 184.548 149.182ZM184.574 141.392C185.227 141.392 185.784 141.233 186.244 140.915C186.704 140.597 187.054 140.139 187.292 139.543C187.531 138.946 187.65 138.23 187.65 137.395C187.65 136.571 187.531 135.849 187.292 135.23C187.059 134.611 186.713 134.131 186.252 133.79C185.798 133.443 185.238 133.27 184.574 133.27C183.886 133.27 183.312 133.449 182.852 133.807C182.392 134.165 182.045 134.656 181.812 135.281C181.579 135.901 181.463 136.605 181.463 137.395C181.463 138.196 181.579 138.898 181.812 139.5C182.051 140.097 182.4 140.562 182.86 140.898C183.326 141.227 183.897 141.392 184.574 141.392ZM199.65 144.256C198.338 144.256 197.204 143.983 196.25 143.438C195.301 142.886 194.571 142.108 194.059 141.102C193.548 140.091 193.292 138.901 193.292 137.531C193.292 136.185 193.548 135.003 194.059 133.986C194.576 132.963 195.298 132.168 196.224 131.599C197.15 131.026 198.238 130.739 199.488 130.739C200.295 130.739 201.056 130.869 201.772 131.131C202.494 131.386 203.13 131.784 203.681 132.324C204.238 132.864 204.676 133.551 204.994 134.386C205.312 135.216 205.471 136.205 205.471 137.352V138.298H194.741V136.219H202.514C202.508 135.628 202.38 135.102 202.13 134.642C201.88 134.176 201.531 133.81 201.082 133.543C200.639 133.276 200.122 133.142 199.531 133.142C198.9 133.142 198.346 133.295 197.869 133.602C197.392 133.903 197.02 134.301 196.752 134.795C196.491 135.284 196.358 135.821 196.352 136.406V138.222C196.352 138.983 196.491 139.636 196.77 140.182C197.048 140.722 197.437 141.136 197.937 141.426C198.437 141.71 199.022 141.852 199.693 141.852C200.142 141.852 200.548 141.79 200.912 141.665C201.275 141.534 201.591 141.344 201.858 141.094C202.125 140.844 202.326 140.534 202.463 140.165L205.343 140.489C205.162 141.25 204.815 141.915 204.304 142.483C203.798 143.045 203.15 143.483 202.36 143.795C201.571 144.102 200.667 144.256 199.65 144.256ZM211.167 136.33V144H208.081V130.909H211.03V133.134H211.184C211.485 132.401 211.965 131.818 212.624 131.386C213.289 130.955 214.11 130.739 215.087 130.739C215.99 130.739 216.777 130.932 217.448 131.318C218.124 131.705 218.647 132.264 219.016 132.997C219.391 133.73 219.576 134.619 219.57 135.665V144H216.485V136.142C216.485 135.267 216.257 134.582 215.803 134.088C215.354 133.594 214.732 133.347 213.936 133.347C213.397 133.347 212.917 133.466 212.496 133.705C212.081 133.937 211.755 134.276 211.516 134.719C211.283 135.162 211.167 135.699 211.167 136.33ZM227.564 144.23C226.536 144.23 225.615 143.966 224.803 143.438C223.99 142.909 223.348 142.142 222.877 141.136C222.405 140.131 222.169 138.909 222.169 137.472C222.169 136.017 222.408 134.79 222.885 133.79C223.368 132.784 224.019 132.026 224.837 131.514C225.655 130.997 226.567 130.739 227.573 130.739C228.34 130.739 228.971 130.869 229.465 131.131C229.959 131.386 230.351 131.696 230.641 132.06C230.931 132.418 231.155 132.756 231.314 133.074H231.442V126.545H234.536V144H231.502V141.938H231.314C231.155 142.256 230.925 142.594 230.624 142.952C230.323 143.304 229.925 143.605 229.431 143.855C228.936 144.105 228.314 144.23 227.564 144.23ZM228.425 141.699C229.078 141.699 229.635 141.523 230.096 141.17C230.556 140.812 230.905 140.315 231.144 139.679C231.382 139.043 231.502 138.301 231.502 137.455C231.502 136.608 231.382 135.872 231.144 135.247C230.911 134.622 230.564 134.136 230.104 133.79C229.65 133.443 229.09 133.27 228.425 133.27C227.738 133.27 227.164 133.449 226.703 133.807C226.243 134.165 225.897 134.659 225.664 135.29C225.431 135.92 225.314 136.642 225.314 137.455C225.314 138.273 225.431 139.003 225.664 139.645C225.902 140.281 226.252 140.784 226.712 141.153C227.178 141.517 227.749 141.699 228.425 141.699ZM241.591 144.264C240.761 144.264 240.014 144.116 239.349 143.821C238.69 143.52 238.167 143.077 237.781 142.491C237.4 141.906 237.21 141.185 237.21 140.327C237.21 139.588 237.346 138.977 237.619 138.494C237.892 138.011 238.264 137.625 238.735 137.335C239.207 137.045 239.738 136.827 240.329 136.679C240.926 136.526 241.542 136.415 242.179 136.347C242.946 136.267 243.568 136.196 244.045 136.134C244.522 136.065 244.869 135.963 245.085 135.827C245.306 135.685 245.417 135.466 245.417 135.17V135.119C245.417 134.477 245.227 133.98 244.846 133.628C244.466 133.276 243.917 133.099 243.201 133.099C242.446 133.099 241.846 133.264 241.403 133.594C240.966 133.923 240.67 134.312 240.517 134.761L237.636 134.352C237.863 133.557 238.238 132.892 238.761 132.358C239.284 131.818 239.923 131.415 240.679 131.148C241.434 130.875 242.27 130.739 243.184 130.739C243.815 130.739 244.443 130.812 245.068 130.96C245.693 131.108 246.264 131.352 246.781 131.693C247.298 132.028 247.713 132.486 248.025 133.065C248.343 133.645 248.502 134.369 248.502 135.239V144H245.537V142.202H245.434C245.247 142.565 244.983 142.906 244.642 143.224C244.306 143.537 243.883 143.79 243.372 143.983C242.866 144.17 242.272 144.264 241.591 144.264ZM242.392 141.997C243.011 141.997 243.548 141.875 244.002 141.631C244.457 141.381 244.806 141.051 245.051 140.642C245.301 140.233 245.426 139.787 245.426 139.304V137.761C245.329 137.841 245.164 137.915 244.931 137.983C244.704 138.051 244.449 138.111 244.164 138.162C243.88 138.213 243.599 138.259 243.321 138.298C243.042 138.338 242.801 138.372 242.596 138.401C242.136 138.463 241.724 138.565 241.36 138.707C240.997 138.849 240.71 139.048 240.5 139.304C240.289 139.554 240.184 139.878 240.184 140.276C240.184 140.844 240.392 141.273 240.806 141.562C241.221 141.852 241.75 141.997 242.392 141.997ZM256.501 126.545H260.072L264.342 134.267H264.512L268.782 126.545H272.353L266.004 137.489V144H262.85V137.489L256.501 126.545ZM277.729 144.256C276.451 144.256 275.343 143.974 274.405 143.412C273.468 142.849 272.74 142.062 272.223 141.051C271.712 140.04 271.456 138.858 271.456 137.506C271.456 136.153 271.712 134.969 272.223 133.952C272.74 132.935 273.468 132.145 274.405 131.582C275.343 131.02 276.451 130.739 277.729 130.739C279.007 130.739 280.115 131.02 281.053 131.582C281.99 132.145 282.715 132.935 283.226 133.952C283.743 134.969 284.002 136.153 284.002 137.506C284.002 138.858 283.743 140.04 283.226 141.051C282.715 142.062 281.99 142.849 281.053 143.412C280.115 143.974 279.007 144.256 277.729 144.256ZM277.746 141.784C278.439 141.784 279.019 141.594 279.485 141.213C279.951 140.827 280.297 140.31 280.525 139.662C280.757 139.014 280.874 138.293 280.874 137.497C280.874 136.696 280.757 135.972 280.525 135.324C280.297 134.67 279.951 134.151 279.485 133.764C279.019 133.378 278.439 133.185 277.746 133.185C277.036 133.185 276.445 133.378 275.973 133.764C275.507 134.151 275.158 134.67 274.925 135.324C274.698 135.972 274.584 136.696 274.584 137.497C274.584 138.293 274.698 139.014 274.925 139.662C275.158 140.31 275.507 140.827 275.973 141.213C276.445 141.594 277.036 141.784 277.746 141.784ZM294.964 138.494V130.909H298.049V144H295.058V141.673H294.922C294.626 142.406 294.14 143.006 293.464 143.472C292.794 143.937 291.967 144.17 290.984 144.17C290.126 144.17 289.368 143.98 288.708 143.599C288.055 143.213 287.544 142.653 287.174 141.92C286.805 141.182 286.62 140.29 286.62 139.244V130.909H289.706V138.767C289.706 139.597 289.933 140.256 290.387 140.744C290.842 141.233 291.439 141.477 292.177 141.477C292.632 141.477 293.072 141.366 293.498 141.145C293.924 140.923 294.274 140.594 294.547 140.156C294.825 139.713 294.964 139.159 294.964 138.494ZM307.759 130.909V133.295H300.233V130.909H307.759ZM302.091 127.773H305.176V140.062C305.176 140.477 305.239 140.795 305.364 141.017C305.495 141.233 305.665 141.381 305.875 141.46C306.086 141.54 306.319 141.58 306.574 141.58C306.767 141.58 306.944 141.565 307.103 141.537C307.267 141.509 307.392 141.483 307.478 141.46L307.998 143.872C307.833 143.929 307.597 143.991 307.29 144.06C306.989 144.128 306.62 144.168 306.182 144.179C305.409 144.202 304.713 144.085 304.094 143.83C303.475 143.568 302.983 143.165 302.62 142.619C302.262 142.074 302.086 141.392 302.091 140.574V127.773ZM318.683 138.494V130.909H321.768V144H318.777V141.673H318.64C318.345 142.406 317.859 143.006 317.183 143.472C316.512 143.937 315.686 144.17 314.703 144.17C313.845 144.17 313.086 143.98 312.427 143.599C311.774 143.213 311.262 142.653 310.893 141.92C310.524 141.182 310.339 140.29 310.339 139.244V130.909H313.424V138.767C313.424 139.597 313.652 140.256 314.106 140.744C314.561 141.233 315.157 141.477 315.896 141.477C316.35 141.477 316.791 141.366 317.217 141.145C317.643 140.923 317.993 140.594 318.265 140.156C318.544 139.713 318.683 139.159 318.683 138.494ZM325.077 144V126.545H328.162V133.074H328.29C328.449 132.756 328.674 132.418 328.963 132.06C329.253 131.696 329.645 131.386 330.14 131.131C330.634 130.869 331.265 130.739 332.032 130.739C333.043 130.739 333.955 130.997 334.767 131.514C335.586 132.026 336.233 132.784 336.711 133.79C337.194 134.79 337.435 136.017 337.435 137.472C337.435 138.909 337.199 140.131 336.728 141.136C336.256 142.142 335.614 142.909 334.801 143.438C333.989 143.966 333.069 144.23 332.04 144.23C331.29 144.23 330.668 144.105 330.174 143.855C329.679 143.605 329.282 143.304 328.98 142.952C328.685 142.594 328.455 142.256 328.29 141.938H328.111V144H325.077ZM328.103 137.455C328.103 138.301 328.222 139.043 328.461 139.679C328.705 140.315 329.054 140.812 329.509 141.17C329.969 141.523 330.526 141.699 331.179 141.699C331.861 141.699 332.432 141.517 332.892 141.153C333.353 140.784 333.699 140.281 333.932 139.645C334.171 139.003 334.29 138.273 334.29 137.455C334.29 136.642 334.174 135.92 333.941 135.29C333.708 134.659 333.361 134.165 332.901 133.807C332.441 133.449 331.867 133.27 331.179 133.27C330.52 133.27 329.961 133.443 329.5 133.79C329.04 134.136 328.691 134.622 328.452 135.247C328.219 135.872 328.103 136.608 328.103 137.455ZM345.853 144.256C344.541 144.256 343.407 143.983 342.453 143.438C341.504 142.886 340.774 142.108 340.262 141.102C339.751 140.091 339.495 138.901 339.495 137.531C339.495 136.185 339.751 135.003 340.262 133.986C340.779 132.963 341.501 132.168 342.427 131.599C343.353 131.026 344.441 130.739 345.691 130.739C346.498 130.739 347.26 130.869 347.975 131.131C348.697 131.386 349.333 131.784 349.885 132.324C350.441 132.864 350.879 133.551 351.197 134.386C351.515 135.216 351.674 136.205 351.674 137.352V138.298H340.944V136.219H348.717C348.711 135.628 348.583 135.102 348.333 134.642C348.083 134.176 347.734 133.81 347.285 133.543C346.842 133.276 346.325 133.142 345.734 133.142C345.103 133.142 344.549 133.295 344.072 133.602C343.595 133.903 343.223 134.301 342.956 134.795C342.694 135.284 342.561 135.821 342.555 136.406V138.222C342.555 138.983 342.694 139.636 342.973 140.182C343.251 140.722 343.64 141.136 344.14 141.426C344.64 141.71 345.225 141.852 345.896 141.852C346.345 141.852 346.751 141.79 347.115 141.665C347.478 141.534 347.794 141.344 348.061 141.094C348.328 140.844 348.529 140.534 348.666 140.165L351.547 140.489C351.365 141.25 351.018 141.915 350.507 142.483C350.001 143.045 349.353 143.483 348.564 143.795C347.774 144.102 346.87 144.256 345.853 144.256ZM193.604 173V155.545H200.15C201.491 155.545 202.616 155.795 203.525 156.295C204.44 156.795 205.13 157.483 205.596 158.358C206.067 159.227 206.303 160.216 206.303 161.324C206.303 162.443 206.067 163.437 205.596 164.307C205.124 165.176 204.428 165.861 203.508 166.361C202.587 166.855 201.454 167.102 200.107 167.102H195.769V164.503H199.681C200.465 164.503 201.107 164.366 201.607 164.094C202.107 163.821 202.477 163.446 202.715 162.969C202.96 162.491 203.082 161.943 203.082 161.324C203.082 160.705 202.96 160.159 202.715 159.688C202.477 159.216 202.104 158.849 201.599 158.588C201.099 158.321 200.454 158.188 199.664 158.188H196.766V173H193.604ZM214.436 173.256C213.158 173.256 212.05 172.974 211.112 172.412C210.175 171.849 209.447 171.062 208.93 170.051C208.419 169.04 208.163 167.858 208.163 166.506C208.163 165.153 208.419 163.969 208.93 162.952C209.447 161.935 210.175 161.145 211.112 160.582C212.05 160.02 213.158 159.739 214.436 159.739C215.714 159.739 216.822 160.02 217.76 160.582C218.697 161.145 219.422 161.935 219.933 162.952C220.45 163.969 220.709 165.153 220.709 166.506C220.709 167.858 220.45 169.04 219.933 170.051C219.422 171.062 218.697 171.849 217.76 172.412C216.822 172.974 215.714 173.256 214.436 173.256ZM214.453 170.784C215.146 170.784 215.726 170.594 216.192 170.213C216.658 169.827 217.004 169.31 217.232 168.662C217.464 168.014 217.581 167.293 217.581 166.497C217.581 165.696 217.464 164.972 217.232 164.324C217.004 163.67 216.658 163.151 216.192 162.764C215.726 162.378 215.146 162.185 214.453 162.185C213.743 162.185 213.152 162.378 212.68 162.764C212.214 163.151 211.865 163.67 211.632 164.324C211.405 164.972 211.291 165.696 211.291 166.497C211.291 167.293 211.405 168.014 211.632 168.662C211.865 169.31 212.214 169.827 212.68 170.213C213.152 170.594 213.743 170.784 214.453 170.784ZM233.674 163.369L230.862 163.676C230.782 163.392 230.643 163.125 230.444 162.875C230.251 162.625 229.989 162.423 229.66 162.27C229.33 162.116 228.927 162.04 228.45 162.04C227.808 162.04 227.268 162.179 226.83 162.457C226.398 162.736 226.185 163.097 226.191 163.54C226.185 163.92 226.325 164.23 226.609 164.469C226.898 164.707 227.376 164.903 228.04 165.057L230.273 165.534C231.512 165.801 232.433 166.224 233.035 166.804C233.643 167.384 233.95 168.142 233.955 169.08C233.95 169.903 233.708 170.631 233.231 171.261C232.759 171.886 232.103 172.375 231.262 172.727C230.421 173.08 229.455 173.256 228.364 173.256C226.762 173.256 225.472 172.92 224.495 172.25C223.518 171.574 222.935 170.634 222.748 169.429L225.756 169.139C225.893 169.73 226.183 170.176 226.626 170.477C227.069 170.778 227.646 170.929 228.356 170.929C229.089 170.929 229.677 170.778 230.12 170.477C230.569 170.176 230.793 169.804 230.793 169.361C230.793 168.986 230.648 168.676 230.359 168.432C230.075 168.187 229.631 168 229.029 167.869L226.796 167.401C225.54 167.139 224.612 166.699 224.009 166.08C223.407 165.455 223.109 164.665 223.114 163.71C223.109 162.903 223.327 162.205 223.771 161.614C224.219 161.017 224.842 160.557 225.637 160.233C226.438 159.903 227.362 159.739 228.407 159.739C229.941 159.739 231.148 160.065 232.029 160.719C232.915 161.372 233.464 162.256 233.674 163.369ZM243.036 159.909V162.295H235.511V159.909H243.036ZM237.369 156.773H240.454V169.062C240.454 169.477 240.516 169.795 240.641 170.017C240.772 170.233 240.942 170.381 241.153 170.46C241.363 170.54 241.596 170.58 241.852 170.58C242.045 170.58 242.221 170.565 242.38 170.537C242.545 170.509 242.67 170.483 242.755 170.46L243.275 172.872C243.11 172.929 242.874 172.991 242.567 173.06C242.266 173.128 241.897 173.168 241.46 173.179C240.687 173.202 239.991 173.085 239.371 172.83C238.752 172.568 238.261 172.165 237.897 171.619C237.539 171.074 237.363 170.392 237.369 169.574V156.773ZM254.868 155.545V173H251.706V155.545H254.868ZM258.156 173V159.909H261.104V162.134H261.258C261.531 161.384 261.982 160.798 262.613 160.378C263.244 159.952 263.996 159.739 264.871 159.739C265.758 159.739 266.505 159.955 267.113 160.386C267.727 160.812 268.158 161.395 268.408 162.134H268.545C268.835 161.406 269.323 160.827 270.011 160.395C270.704 159.957 271.525 159.739 272.474 159.739C273.678 159.739 274.661 160.119 275.423 160.881C276.184 161.642 276.565 162.753 276.565 164.213V173H273.471V164.69C273.471 163.878 273.255 163.284 272.823 162.909C272.391 162.528 271.863 162.338 271.238 162.338C270.494 162.338 269.911 162.571 269.491 163.037C269.076 163.497 268.869 164.097 268.869 164.835V173H265.843V164.562C265.843 163.886 265.638 163.347 265.229 162.943C264.826 162.54 264.298 162.338 263.644 162.338C263.201 162.338 262.798 162.452 262.434 162.679C262.07 162.901 261.781 163.216 261.565 163.625C261.349 164.028 261.241 164.5 261.241 165.04V173H258.156ZM283.462 173.264C282.632 173.264 281.885 173.116 281.22 172.821C280.561 172.52 280.038 172.077 279.652 171.491C279.271 170.906 279.081 170.185 279.081 169.327C279.081 168.588 279.217 167.977 279.49 167.494C279.763 167.011 280.135 166.625 280.607 166.335C281.078 166.045 281.609 165.827 282.2 165.679C282.797 165.526 283.413 165.415 284.05 165.347C284.817 165.267 285.439 165.196 285.916 165.134C286.393 165.065 286.74 164.963 286.956 164.827C287.178 164.685 287.288 164.466 287.288 164.17V164.119C287.288 163.477 287.098 162.98 286.717 162.628C286.337 162.276 285.788 162.099 285.072 162.099C284.317 162.099 283.717 162.264 283.274 162.594C282.837 162.923 282.541 163.312 282.388 163.761L279.507 163.352C279.734 162.557 280.109 161.892 280.632 161.358C281.155 160.818 281.794 160.415 282.55 160.148C283.305 159.875 284.141 159.739 285.055 159.739C285.686 159.739 286.314 159.812 286.939 159.96C287.564 160.108 288.135 160.352 288.652 160.693C289.169 161.028 289.584 161.486 289.896 162.065C290.214 162.645 290.374 163.369 290.374 164.239V173H287.408V171.202H287.305C287.118 171.565 286.854 171.906 286.513 172.224C286.178 172.537 285.754 172.79 285.243 172.983C284.737 173.17 284.143 173.264 283.462 173.264ZM284.263 170.997C284.882 170.997 285.419 170.875 285.874 170.631C286.328 170.381 286.678 170.051 286.922 169.642C287.172 169.233 287.297 168.787 287.297 168.304V166.761C287.2 166.841 287.036 166.915 286.803 166.983C286.575 167.051 286.32 167.111 286.036 167.162C285.751 167.213 285.47 167.259 285.192 167.298C284.913 167.338 284.672 167.372 284.467 167.401C284.007 167.463 283.595 167.565 283.232 167.707C282.868 167.849 282.581 168.048 282.371 168.304C282.161 168.554 282.055 168.878 282.055 169.276C282.055 169.844 282.263 170.273 282.678 170.562C283.092 170.852 283.621 170.997 284.263 170.997ZM299.169 178.182C298.061 178.182 297.109 178.031 296.314 177.73C295.518 177.435 294.879 177.037 294.396 176.537C293.913 176.037 293.578 175.483 293.391 174.875L296.169 174.202C296.294 174.457 296.476 174.71 296.714 174.96C296.953 175.216 297.274 175.426 297.678 175.591C298.087 175.761 298.601 175.847 299.22 175.847C300.095 175.847 300.82 175.634 301.393 175.207C301.967 174.787 302.254 174.094 302.254 173.128V170.648H302.101C301.942 170.966 301.709 171.293 301.402 171.628C301.101 171.963 300.7 172.244 300.2 172.472C299.706 172.699 299.084 172.812 298.334 172.812C297.328 172.812 296.416 172.577 295.598 172.105C294.786 171.628 294.138 170.918 293.655 169.974C293.178 169.026 292.939 167.838 292.939 166.412C292.939 164.974 293.178 163.761 293.655 162.773C294.138 161.778 294.788 161.026 295.607 160.514C296.425 159.997 297.337 159.739 298.342 159.739C299.109 159.739 299.74 159.869 300.234 160.131C300.734 160.386 301.132 160.696 301.428 161.06C301.723 161.418 301.947 161.756 302.101 162.074H302.271V159.909H305.314V173.213C305.314 174.332 305.047 175.259 304.513 175.991C303.979 176.724 303.249 177.273 302.322 177.636C301.396 178 300.345 178.182 299.169 178.182ZM299.195 170.392C299.848 170.392 300.405 170.233 300.865 169.915C301.325 169.597 301.675 169.139 301.913 168.543C302.152 167.946 302.271 167.23 302.271 166.395C302.271 165.571 302.152 164.849 301.913 164.23C301.68 163.611 301.334 163.131 300.874 162.79C300.419 162.443 299.859 162.27 299.195 162.27C298.507 162.27 297.933 162.449 297.473 162.807C297.013 163.165 296.666 163.656 296.433 164.281C296.2 164.901 296.084 165.605 296.084 166.395C296.084 167.196 296.2 167.898 296.433 168.5C296.672 169.097 297.021 169.562 297.482 169.898C297.947 170.227 298.518 170.392 299.195 170.392ZM314.271 173.256C312.959 173.256 311.825 172.983 310.871 172.438C309.922 171.886 309.192 171.108 308.68 170.102C308.169 169.091 307.913 167.901 307.913 166.531C307.913 165.185 308.169 164.003 308.68 162.986C309.197 161.963 309.919 161.168 310.845 160.599C311.771 160.026 312.859 159.739 314.109 159.739C314.916 159.739 315.678 159.869 316.393 160.131C317.115 160.386 317.751 160.784 318.303 161.324C318.859 161.864 319.297 162.551 319.615 163.386C319.933 164.216 320.092 165.205 320.092 166.352V167.298H309.362V165.219H317.135C317.129 164.628 317.001 164.102 316.751 163.642C316.501 163.176 316.152 162.81 315.703 162.543C315.26 162.276 314.743 162.142 314.152 162.142C313.521 162.142 312.967 162.295 312.49 162.602C312.013 162.903 311.641 163.301 311.374 163.795C311.112 164.284 310.979 164.821 310.973 165.406V167.222C310.973 167.983 311.112 168.636 311.391 169.182C311.669 169.722 312.058 170.136 312.558 170.426C313.058 170.71 313.643 170.852 314.314 170.852C314.763 170.852 315.169 170.79 315.533 170.665C315.896 170.534 316.212 170.344 316.479 170.094C316.746 169.844 316.947 169.534 317.084 169.165L319.964 169.489C319.783 170.25 319.436 170.915 318.925 171.483C318.419 172.045 317.771 172.483 316.982 172.795C316.192 173.102 315.288 173.256 314.271 173.256Z" fill="#C4C1C1"/>
</svg>
